<?xml version="1.0" encoding="utf-8"?>
<!-- Generator: Adobe Illustrator 16.0.0, SVG Export Plug-In . SVG Version: 6.00 Build 0)  -->
<!DOCTYPE svg PUBLIC "-//W3C//DTD SVG 1.1//EN" "http://www.w3.org/Graphics/SVG/1.1/DTD/svg11.dtd">
<svg version="1.1" id="Layer_1" xmlns="http://www.w3.org/2000/svg" xmlns:xlink="http://www.w3.org/1999/xlink" x="0px" y="0px"
	 width="337.5px" height="309.5px" viewBox="0 0 337.5 309.5" enable-background="new 0 0 337.5 309.5" xml:space="preserve">
<g>
	<path d="M27.291,154.75c0-78.131,63.329-141.46,141.459-141.46c78.13,0,141.459,63.329,141.459,141.46
		c0,78.119-63.33,141.459-141.459,141.459C90.62,296.209,27.291,232.87,27.291,154.75z"/>
	<path fill="#FFFFFF" d="M194.146,90.541v124.334c34.336,0,62.167-27.836,62.167-62.167
		C256.313,118.372,228.481,90.541,194.146,90.541z"/>
	<g>
		<path fill="#FFFFFF" d="M128.35,152.708c0-34.336,27.831-62.167,62.167-62.167h-74.799c-5.897,0-10.726,4.829-10.726,10.727
			v102.881c0,5.897,4.829,10.726,10.726,10.726h74.799C156.18,214.875,128.35,187.038,128.35,152.708z"/>
	</g>
</g>
</svg>
